<?xml version="1.0" encoding="utf-8"?><!-- Uploaded to: SVG Repo, www.svgrepo.com, Generator: SVG Repo Mixer Tools -->

<!-- Circle -->
<svg fill="#000000" width="800px" height="800px" viewBox="0 0 256 256" xmlns="http://www.w3.org/2000/svg">
    <circle cx="127" cy="129" r="81" fill-rule="evenodd"/>
</svg>


<!-- Dil -->
<svg viewBox="0 0 24 24" fill="none" xmlns="http://www.w3.org/2000/svg"><g id="SVGRepo_bgCarrier" stroke-width="0"></g><g id="SVGRepo_tracerCarrier" stroke-linecap="round" stroke-linejoin="round"></g><g id="SVGRepo_iconCarrier"> <rect width="24" height="24" fill="white"></rect> <path fill-rule="evenodd" clip-rule="evenodd" d="M5.36129 3.46995C6.03579 3.16081 6.76287 3 7.50002 3C8.23718 3 8.96425 3.16081 9.63875 3.46995C10.3129 3.77893 10.9185 4.22861 11.4239 4.78788C11.7322 5.12902 12.2678 5.12902 12.5761 4.78788C13.5979 3.65726 15.0068 3.00001 16.5 3.00001C17.9932 3.00001 19.4021 3.65726 20.4239 4.78788C21.4427 5.91515 22 7.42425 22 8.9792C22 10.5342 21.4427 12.0433 20.4239 13.1705L14.2257 20.0287C13.0346 21.3467 10.9654 21.3467 9.77429 20.0287L3.57613 13.1705C3.07086 12.6115 2.67474 11.9531 2.40602 11.2353C2.13731 10.5175 2 9.75113 2 8.9792C2 8.20728 2.13731 7.44094 2.40602 6.72315C2.67474 6.00531 3.07086 5.34694 3.57613 4.78788C4.08157 4.22861 4.68716 3.77893 5.36129 3.46995Z" fill="#323232"></path> </g></svg>

<!-- //flower -->
<svg fill="#000000" viewBox="0 0 24 24" xmlns="http://www.w3.org/2000/svg"><g id="SVGRepo_bgCarrier" stroke-width="0"></g><g id="SVGRepo_tracerCarrier" stroke-linecap="round" stroke-linejoin="round"></g><g id="SVGRepo_iconCarrier"><path d="M19.965 8.521C19.988 8.347 20 8.173 20 8c0-2.379-2.143-4.288-4.521-3.965C14.786 2.802 13.466 2 12 2s-2.786.802-3.479 2.035C6.138 3.712 4 5.621 4 8c0 .173.012.347.035.521C2.802 9.215 2 10.535 2 12s.802 2.785 2.035 3.479A3.976 3.976 0 0 0 4 16c0 2.379 2.138 4.283 4.521 3.965C9.214 21.198 10.534 22 12 22s2.786-.802 3.479-2.035C17.857 20.283 20 18.379 20 16c0-.173-.012-.347-.035-.521C21.198 14.785 22 13.465 22 12s-.802-2.785-2.035-3.479z"></path></g></svg>